<?xml version="1.0" encoding="utf-8"?><!-- Uploaded to: SVG Repo, www.svgrepo.com, Generator: SVG Repo Mixer Tools -->
<svg width="800px" height="800px" viewBox="0 0 64 64" id="Layer_1" data-name="Layer 1" xmlns="http://www.w3.org/2000/svg"><defs><style>.cls-1{fill:none;stroke:#000000;stroke-linecap:round;stroke-linejoin:round;stroke-width:2px;}</style></defs><title>pot, plant, household, interior</title><path class="cls-1" d="M42.27,40.3l-.64,9.18a3.29,3.29,0,0,1-3.29,3.11H26.08a3.29,3.29,0,0,1-3.29-3.11L22,34.6h20.5"/><path class="cls-1" d="M29.65,30.6H21.81a2,2,0,0,0-2,2.18,2.08,2.08,0,0,0,2.1,1.82H42.61a2,2,0,0,0,2-2.18,2.08,2.08,0,0,0-2.1-1.82H34a1.29,1.29,0,0,1-1.29-1.29v-8.1s-.71-8.33,9.12-8.33c0,0,.47,5.94-5.29,7.86"/><path class="cls-1" d="M28.43,23a6.19,6.19,0,0,0-6.53-3s-1,4.83,6.35,6.8"/><circle cx="42.46" cy="37.6" r="1"/></svg>